<svg width="192" height="192" viewBox="0 0 192 192" fill="none" xmlns="http://www.w3.org/2000/svg">
<g clip-path="url(#paint0_angular_1315_971_clip_path)" data-figma-skip-parse="true"><g transform="matrix(0 0.0860346 -0.0861898 0 86.1898 86.0346)"><foreignObject x="-1239.8" y="-1239.8" width="2479.61" height="2479.61"><div xmlns="http://www.w3.org/1999/xhtml" style="background:conic-gradient(from 90deg,rgba(61, 150, 255, 1) 0deg,rgba(0, 212, 255, 1) 45.069deg,rgba(120, 97, 255, 1) 70.9615deg,rgba(76, 136, 255, 1) 348.931deg,rgba(61, 150, 255, 1) 360deg);height:100%;width:100%;opacity:1"></div></foreignObject></g></g><path d="M90.8324 46.8133L126.466 116.256C129.188 119.555 130.59 120.15 134.004 120.15H172.38C172.38 120.15 122.355 26.0764 112.761 10.5003C103.167 -5.0758 76.5332 -1.83071 69.5891 10.5003C62.6449 22.8314 7.91446 116.905 1.74728 134.428C-4.4199 151.95 5.55166 168.579 34.6403 172.069C31.6379 170.403 26.916 162.214 29.1117 158.44L41.9474 137.493L90.8324 46.8133Z" data-figma-gradient-fill="{&#34;type&#34;:&#34;GRADIENT_ANGULAR&#34;,&#34;stops&#34;:[{&#34;color&#34;:{&#34;r&#34;:0.0,&#34;g&#34;:0.83137255907058716,&#34;b&#34;:1.0,&#34;a&#34;:1.0},&#34;position&#34;:0.12519158422946930},{&#34;color&#34;:{&#34;r&#34;:0.47058823704719543,&#34;g&#34;:0.38039216399192810,&#34;b&#34;:1.0,&#34;a&#34;:1.0},&#34;position&#34;:0.19711539149284363},{&#34;color&#34;:{&#34;r&#34;:0.29803922772407532,&#34;g&#34;:0.53333336114883423,&#34;b&#34;:1.0,&#34;a&#34;:1.0},&#34;position&#34;:0.96925187110900879}],&#34;stopsVar&#34;:[{&#34;color&#34;:{&#34;r&#34;:0.0,&#34;g&#34;:0.83137255907058716,&#34;b&#34;:1.0,&#34;a&#34;:1.0},&#34;position&#34;:0.12519158422946930},{&#34;color&#34;:{&#34;r&#34;:0.47058823704719543,&#34;g&#34;:0.38039216399192810,&#34;b&#34;:1.0,&#34;a&#34;:1.0},&#34;position&#34;:0.19711539149284363},{&#34;color&#34;:{&#34;r&#34;:0.29803922772407532,&#34;g&#34;:0.53333336114883423,&#34;b&#34;:1.0,&#34;a&#34;:1.0},&#34;position&#34;:0.96925187110900879}],&#34;transform&#34;:{&#34;m00&#34;:1.0555205357486424e-14,&#34;m01&#34;:-172.37956237792969,&#34;m02&#34;:172.37956237792969,&#34;m10&#34;:172.06921386718750,&#34;m11&#34;:1.0536200479248879e-14,&#34;m12&#34;:4.4992556773713021e-22},&#34;opacity&#34;:1.0,&#34;blendMode&#34;:&#34;NORMAL&#34;,&#34;visible&#34;:true}"/>
<g clip-path="url(#paint1_angular_1315_971_clip_path)" data-figma-skip-parse="true"><g transform="matrix(0 0.0860346 -0.0861898 0 86.1898 86.0346)"><foreignObject x="-1239.8" y="-1239.8" width="2479.61" height="2479.61"><div xmlns="http://www.w3.org/1999/xhtml" style="background:conic-gradient(from 90deg,rgba(61, 150, 255, 1) 0deg,rgba(0, 212, 255, 1) 45.069deg,rgba(120, 97, 255, 1) 70.9615deg,rgba(76, 136, 255, 1) 348.931deg,rgba(61, 150, 255, 1) 360deg);height:100%;width:100%;opacity:1"></div></foreignObject></g></g><path d="M34.6403 172.069C34.6403 172.069 64.7918 158.441 78.4976 151.95C92.2033 145.46 112.076 160.387 112.076 160.387C112.076 160.387 102.706 132.48 98.3704 125.991C94.0351 119.501 86.7205 119.501 79.1828 121.448C71.6452 123.394 41.9474 137.493 41.9474 137.493L29.1117 158.44C26.916 162.214 31.6379 170.403 34.6403 172.069Z" data-figma-gradient-fill="{&#34;type&#34;:&#34;GRADIENT_ANGULAR&#34;,&#34;stops&#34;:[{&#34;color&#34;:{&#34;r&#34;:0.0,&#34;g&#34;:0.83137255907058716,&#34;b&#34;:1.0,&#34;a&#34;:1.0},&#34;position&#34;:0.12519158422946930},{&#34;color&#34;:{&#34;r&#34;:0.47058823704719543,&#34;g&#34;:0.38039216399192810,&#34;b&#34;:1.0,&#34;a&#34;:1.0},&#34;position&#34;:0.19711539149284363},{&#34;color&#34;:{&#34;r&#34;:0.29803922772407532,&#34;g&#34;:0.53333336114883423,&#34;b&#34;:1.0,&#34;a&#34;:1.0},&#34;position&#34;:0.96925187110900879}],&#34;stopsVar&#34;:[{&#34;color&#34;:{&#34;r&#34;:0.0,&#34;g&#34;:0.83137255907058716,&#34;b&#34;:1.0,&#34;a&#34;:1.0},&#34;position&#34;:0.12519158422946930},{&#34;color&#34;:{&#34;r&#34;:0.47058823704719543,&#34;g&#34;:0.38039216399192810,&#34;b&#34;:1.0,&#34;a&#34;:1.0},&#34;position&#34;:0.19711539149284363},{&#34;color&#34;:{&#34;r&#34;:0.29803922772407532,&#34;g&#34;:0.53333336114883423,&#34;b&#34;:1.0,&#34;a&#34;:1.0},&#34;position&#34;:0.96925187110900879}],&#34;transform&#34;:{&#34;m00&#34;:1.0555205357486424e-14,&#34;m01&#34;:-172.37956237792969,&#34;m02&#34;:172.37956237792969,&#34;m10&#34;:172.06921386718750,&#34;m11&#34;:1.0536200479248879e-14,&#34;m12&#34;:4.4992556773713021e-22},&#34;opacity&#34;:1.0,&#34;blendMode&#34;:&#34;NORMAL&#34;,&#34;visible&#34;:true}"/>
<g clip-path="url(#paint2_angular_1315_971_clip_path)" data-figma-skip-parse="true"><g transform="matrix(0 0.0860346 -0.0861898 0 86.1898 86.0346)"><foreignObject x="-1239.8" y="-1239.8" width="2479.61" height="2479.61"><div xmlns="http://www.w3.org/1999/xhtml" style="background:conic-gradient(from 90deg,rgba(61, 150, 255, 1) 0deg,rgba(0, 212, 255, 1) 45.069deg,rgba(120, 97, 255, 1) 70.9615deg,rgba(76, 136, 255, 1) 348.931deg,rgba(61, 150, 255, 1) 360deg);height:100%;width:100%;opacity:1"></div></foreignObject></g></g><path d="M192 168.083C192 181.292 180.706 192 166.774 192C152.842 192 141.547 181.292 141.547 168.083C141.547 154.874 152.842 144.166 166.774 144.166C180.706 144.166 192 154.874 192 168.083Z" data-figma-gradient-fill="{&#34;type&#34;:&#34;GRADIENT_ANGULAR&#34;,&#34;stops&#34;:[{&#34;color&#34;:{&#34;r&#34;:0.0,&#34;g&#34;:0.83137255907058716,&#34;b&#34;:1.0,&#34;a&#34;:1.0},&#34;position&#34;:0.12519158422946930},{&#34;color&#34;:{&#34;r&#34;:0.47058823704719543,&#34;g&#34;:0.38039216399192810,&#34;b&#34;:1.0,&#34;a&#34;:1.0},&#34;position&#34;:0.19711539149284363},{&#34;color&#34;:{&#34;r&#34;:0.29803922772407532,&#34;g&#34;:0.53333336114883423,&#34;b&#34;:1.0,&#34;a&#34;:1.0},&#34;position&#34;:0.96925187110900879}],&#34;stopsVar&#34;:[{&#34;color&#34;:{&#34;r&#34;:0.0,&#34;g&#34;:0.83137255907058716,&#34;b&#34;:1.0,&#34;a&#34;:1.0},&#34;position&#34;:0.12519158422946930},{&#34;color&#34;:{&#34;r&#34;:0.47058823704719543,&#34;g&#34;:0.38039216399192810,&#34;b&#34;:1.0,&#34;a&#34;:1.0},&#34;position&#34;:0.19711539149284363},{&#34;color&#34;:{&#34;r&#34;:0.29803922772407532,&#34;g&#34;:0.53333336114883423,&#34;b&#34;:1.0,&#34;a&#34;:1.0},&#34;position&#34;:0.96925187110900879}],&#34;transform&#34;:{&#34;m00&#34;:1.0555205357486424e-14,&#34;m01&#34;:-172.37956237792969,&#34;m02&#34;:172.37956237792969,&#34;m10&#34;:172.06921386718750,&#34;m11&#34;:1.0536200479248879e-14,&#34;m12&#34;:4.4992556773713021e-22},&#34;opacity&#34;:1.0,&#34;blendMode&#34;:&#34;NORMAL&#34;,&#34;visible&#34;:true}"/>
<defs>
<clipPath id="paint0_angular_1315_971_clip_path"><path d="M90.8324 46.8133L126.466 116.256C129.188 119.555 130.59 120.15 134.004 120.15H172.38C172.38 120.15 122.355 26.0764 112.761 10.5003C103.167 -5.0758 76.5332 -1.83071 69.5891 10.5003C62.6449 22.8314 7.91446 116.905 1.74728 134.428C-4.4199 151.95 5.55166 168.579 34.6403 172.069C31.6379 170.403 26.916 162.214 29.1117 158.44L41.9474 137.493L90.8324 46.8133Z"/></clipPath><clipPath id="paint1_angular_1315_971_clip_path"><path d="M34.6403 172.069C34.6403 172.069 64.7918 158.441 78.4976 151.95C92.2033 145.46 112.076 160.387 112.076 160.387C112.076 160.387 102.706 132.48 98.3704 125.991C94.0351 119.501 86.7205 119.501 79.1828 121.448C71.6452 123.394 41.9474 137.493 41.9474 137.493L29.1117 158.44C26.916 162.214 31.6379 170.403 34.6403 172.069Z"/></clipPath><clipPath id="paint2_angular_1315_971_clip_path"><path d="M192 168.083C192 181.292 180.706 192 166.774 192C152.842 192 141.547 181.292 141.547 168.083C141.547 154.874 152.842 144.166 166.774 144.166C180.706 144.166 192 154.874 192 168.083Z"/></clipPath></defs>
</svg>
